<svg xmlns="http://www.w3.org/2000/svg" xmlns:xlink="http://www.w3.org/1999/xlink" width="260" height="70" viewBox="0 0 260 70">
  <defs>
    <style>
      .cls-1 {
        fill: url(#linear-gradient);
      }

      .cls-2 {
        fill: #fff;
        fill-rule: evenodd;
      }
    </style>
    <linearGradient id="linear-gradient" x1="130" y1="70" x2="130" gradientUnits="userSpaceOnUse">
      <stop offset="0" stop-color="#c82090"/>
      <stop offset="1" stop-color="#6a14d1"/>
    </linearGradient>
  </defs>
  <rect id="사각형_1" data-name="사각형 1" class="cls-1" width="260" height="70"/>
  <path id="EDIT_SOUND" data-name="EDIT SOUND" class="cls-2" d="M34.4,47.273H22.063V36.67H32.341a1.642,1.642,0,0,0,1.875-1.839V32.883a1.483,1.483,0,0,0-1.659-1.695H22.063V22.425H34.289a1.424,1.424,0,0,0,1.7-1.515V18.457q0-1.587-1.839-1.587H18.529a1.994,1.994,0,0,0-2.2,2.308V50.627q0,2.091,1.731,2.092h16.3a1.361,1.361,0,0,0,1.623-1.443V48.788A1.372,1.372,0,0,0,34.4,47.273h0ZM60.255,28.447q0-11.577-13.019-11.577H42.007a1.976,1.976,0,0,0-2.236,2.236V50.627q0,2.127,2.308,2.128h5.662q12.514,0,12.514-11.577V28.447ZM45.325,22.208H48.5q6.2,0,6.2,4.8V42.657q0,4.725-6.2,4.725h-3.21ZM74.14,52.719a1.23,1.23,0,0,0,1.443-1.334V49a1.23,1.23,0,0,0-1.334-1.443h-1.37V21.992H74.14a1.244,1.244,0,0,0,1.443-1.37V18.277a1.212,1.212,0,0,0-1.334-1.407H66.061a1.228,1.228,0,0,0-1.407,1.37v2.38a1.138,1.138,0,0,0,1.19,1.37h1.334v25.57H66.061a1.243,1.243,0,0,0-1.407,1.407v2.344a1.157,1.157,0,0,0,1.19,1.407H74.14ZM99.818,22.1a1.2,1.2,0,0,0,1.37-1.334V18.241a1.2,1.2,0,0,0-1.334-1.37H80.343a1.18,1.18,0,0,0-1.371,1.3v2.6A1.179,1.179,0,0,0,80.307,22.1h6.852V51.132a1.435,1.435,0,0,0,1.659,1.587h2.6a1.374,1.374,0,0,0,1.623-1.479V22.1h6.78Zm25.028-.18q4.869,0,5.085,5.482,0.072,1.155,1.623,1.046l2.7-.216a1.32,1.32,0,0,0,1.226-1.479Q135.449,16.51,124.666,16.51q-10.5,0-10.495,10.567h0.036q-0.036,7.826,7.718,9.557,7.574,1.7,7.574,6.023,0,4.869-4.725,4.869t-4.941-5.193a1.108,1.108,0,0,0-.487-0.938,1.96,1.96,0,0,0-1.172-.252l-2.669.216A1.3,1.3,0,0,0,114.1,42.8q0.036,10.206,10.819,10.206,10.5,0,10.5-10.495,0-7.754-7.754-9.665-7.574-1.767-7.573-5.626,0-5.3,4.76-5.3h0Zm14.426,12.695q0,18.466,11.468,18.5,11.721-.036,11.721-18.5,0-18.068-11.721-18.068-11.468,0-11.468,18.068h0Zm17.383,0h0.036Q156.619,47.49,150.74,47.49q-5.625,0-5.626-12.875,0-12.478,5.626-12.478,5.914,0,5.915,12.478h0ZM185,16.871a1,1,0,0,0-1.118,1.154V38.906q0,8.584-5.843,8.583-5.591,0-5.59-8.583V17.989a1.021,1.021,0,0,0-1.19-1.118h-3.534a1.02,1.02,0,0,0-1.154,1.154V38.906q0,14.21,11.468,14.209,11.721,0,11.721-14.209V18.061a1.052,1.052,0,0,0-1.19-1.19H185Zm32.71,1.587a1.435,1.435,0,0,0-1.659-1.587h-2.416a1.5,1.5,0,0,0-1.731,1.659V41.683L200.689,18.169a2.2,2.2,0,0,0-2.055-1.3h-2.561a1.626,1.626,0,0,0-1.875,1.8V51.132a1.451,1.451,0,0,0,1.659,1.623h2.6a1.451,1.451,0,0,0,1.659-1.623V30.323L210.5,51.348a2.345,2.345,0,0,0,2.272,1.407h3.318a1.374,1.374,0,0,0,1.623-1.479V18.457Zm24.957,9.99q0-11.577-13.02-11.577H224.42a1.976,1.976,0,0,0-2.236,2.236V50.627q0,2.127,2.308,2.128h5.662q12.515,0,12.515-11.577V28.447Zm-14.931-6.239h3.174q6.2,0,6.2,4.8V42.657q0,4.725-6.2,4.725H227.7Z"/>
</svg>
