<svg xmlns="http://www.w3.org/2000/svg" width="1060" height="185" viewBox="0 0 1060 185">
  <defs>
    <style>
      .cls-1 {
        fill: #fff;
        fill-rule: evenodd;
      }
    </style>
  </defs>
  <path id="_16Sounds_Title_1" data-name="16Sounds_Title 1" class="cls-1" d="M1055.71,16a30.294,30.294,0,0,1,11.36,2.061v1.031c4.05,1.294,8.73-1.483,11.35-1.03v1.031h5.16v1.03c2.07,0.687,4.13,1.374,6.2,2.061a8.163,8.163,0,0,0,2.06,4.122h1.03v2.061l2.07,1.031v3.091h1.03c0.34,3.435.69,6.87,1.03,10.3-2.14,1.127-1.83,1.66-5.16,2.061-1.03-2.916-.56-4.452-3.1-6.183-2.37-2.426-8.28-3.143-13.41-3.091v1.03c2.54,1.58.63,1.169,2.06,3.091,1.38,1.03,2.75,2.061,4.13,3.091v2.061c0.69,0.343,1.37.687,2.06,1.031v2.061c1.03,0.687,2.07,1.374,3.1,2.061v2.061c1.03,0.687,2.06,1.374,3.1,2.061,0.34,1.03.68,2.061,1.03,3.091,0.69,0.343,1.37.687,2.06,1.03V61.34h1.03c1.96,6.412-5.45,13.436-9.29,14.427-1.92,2.1-.51.038-3.09,1.03v1.03c-7.61,2.34-12.49-5-12.39-11.335h1.03c0.35-1.717.69-3.435,1.04-5.152h1.03q2.055-2.576,4.13-5.152c2.3-1.349,2.84.541,5.16-2.061-3.97-2.386-3.7-4.672-6.19-8.244-1.04-.687-2.07-1.374-3.1-2.061V41.762c-1.03-.687-2.07-1.374-3.1-2.061V37.64l-3.09-2.061V33.518l-2.07-1.03V30.427q-2.055-1.546-4.13-3.091c-2.04-2.891-2.5-6.05-5.16-8.244C1055.03,18.061,1055.37,17.03,1055.71,16ZM247.555,29.4c3.1-.691,3.923-1.841,6.193-3.091v-1.03c1.459,0.023-.423.913,1.032,1.03h4.128c0.872,1.169-.13.15,1.033,1.031l-6.193,9.274-5.161,4.122v2.061h-1.032l-5.161,6.183c-2.92-1.027-4.458-.557-6.192-3.091,2.883-1.665,4.05-4.828,6.192-7.213l2.065-1.03V35.579h1.032V34.548h-2.065l-2.064-3.091H240.33V29.4H239.3V27.335h-1.032c-0.877-2.547,2.091-8.752,3.1-9.274h6.193c1.382,2.6,2.054,3.611,2.064,8.244C247.845,27.466,248.221,26.956,247.555,29.4Zm146.563,4.122c0.713,2.677,1.622,3.348,3.1,5.152h1.032v2.061l2.065,1.03v2.061h1.032c3.766,8.149,5.933,22.578,4.128,32.975-2.7,1.424-1.747,1.823-6.193,2.061-2.725,2.472-13.8,1.134-18.578,1.031-0.614-1.182-1.789-1.6-2.064-2.061V75.767H377.6V66.493h-1.032c-1-2.789-.626-5.98-2.065-8.244h-1.032a8.676,8.676,0,0,1-2.064-4.122,8.708,8.708,0,0,1-4.129-2.061v-1.03l-5.16-1.03v-1.03c-6.635-2.118-17.413,1.208-21.675,2.061l-5.161,6.183h-1.032c-3.076,4.7-3.107,13.684-3.1,21.64,1.891,1.6.885,2.056,2.064,4.122h1.032v2.061l4.129,3.091,1.032,2.061h2.064l1.032,2.061,4.129,1.031v1.031l4.128,1.03v1.031h3.1v1.03h3.1v1.03h3.1v1.031h3.1V100.5h4.128v1.03l10.322,2.061v1.031h2.064v1.03l6.193,2.061,1.032,2.061h2.064l6.193,7.213,3.1,2.061,1.032,4.122,2.065,1.03v3.092h1.032v2.061h1.032v3.091h1.032l1.032,18.548q-0.516,8.244-1.032,16.488h-1.032V171.6h-1.032v2.061h-1.032v3.091h-1.032v2.061h-1.033v2.061l-2.064,1.03v2.061l-3.1,2.061-5.161,6.183h-2.064l-1.032,2.061-6.193,2.061v1.03h-3.1c-7.877,2.969-26.856,5.172-37.157,2.061h-5.161v-1.03h-3.1v-1.031l-6.193-1.03c-5.583-2.478-9.4-7.24-13.418-11.335l-3.1-2.061v-2.061h-1.032v-2.061h-1.032v-2.061h-1.033v-2.061h-1.032V172.63H303.29v-4.122h-1.032v-4.122c-2.1-6.714-2.4-13.707,0-19.578,1.5-.644,2.236-0.355,4.129-1.031v-1.03l18.578-1.031v1.031c2.5,1.26,1.493-.374,3.1,2.061,3.01,3.244.61,5.681,2.065,10.3,1.69,5.371,4.7,12.976,10.321,14.427,2.022,2.377,14.783,5.021,20.643,3.091,2.289-.754,4.359-2.425,7.225-3.091l3.1-4.122h1.032c1.869-2.813,5.094-15.543,3.1-21.64h-1.032l-1.032-5.152h-1.032c-1.467-1.864-2.336-2.451-3.1-5.152a7.99,7.99,0,0,1-4.129-2.061v-1.031h-2.064l-1.032-2.061-6.193-2.061v-1.03L326,116.985v-1.03l-4.128-1.031-1.033-2.061h-2.064l-2.064-3.091h-2.064l-3.1-4.122h-1.032v-2.061l-2.064-1.03V100.5l-2.064-1.031V97.406h-1.033V95.346h-1.032V92.254H303.29V88.132c-6.689-20.763,1.24-49.124,13.418-57.706h2.064l1.032-2.061h2.065L322.9,26.3h2.064v-1.03c8.273-3.769,30.826-6.569,42.317-3.091h5.161v1.03h3.1v1.031h3.1v1.031h3.1V26.3H383.8v1.031h2.065l1.032,2.061h2.064v1.031C390.777,31.91,391.443,32.76,394.118,33.518Zm649.212,0c0.71,2.677,1.62,3.348,3.1,5.152h1.03v2.061c0.69,0.343,1.37.687,2.06,1.03v2.061h1.03c3.77,8.149,5.94,22.578,4.13,32.975-2.69,1.424-1.74,1.823-6.19,2.061-2.73,2.472-13.8,1.134-18.58,1.031-0.61-1.182-1.79-1.6-2.06-2.061V75.767h-1.04V66.493h-1.03c-1-2.789-.62-5.98-2.06-8.244h-1.03a8.628,8.628,0,0,1-2.07-4.122,8.726,8.726,0,0,1-4.13-2.061v-1.03l-5.16-1.03v-1.03c-6.63-2.118-17.41,1.208-21.672,2.061l-5.16,6.183h-1.033c-3.076,4.7-3.107,13.684-3.1,21.64,1.891,1.6.885,2.056,2.064,4.122h1.032v2.061l4.129,3.091,1.032,2.061h2.064l1.032,2.061,4.129,1.031v1.031l4.129,1.03v1.031h3.1v1.03h3.09v1.03h3.1v1.031h3.1V100.5h4.12v1.03l10.32,2.061v1.031h2.07v1.03c2.06,0.687,4.13,1.374,6.19,2.061,0.35,0.687.69,1.374,1.03,2.061h2.07q3.09,3.606,6.19,7.213c1.03,0.687,2.07,1.374,3.1,2.061,0.34,1.374.69,2.748,1.03,4.122,0.69,0.343,1.38.687,2.06,1.03v3.092h1.04v2.061h1.03v3.091h1.03q0.51,9.273,1.03,18.548-0.51,8.244-1.03,16.488h-1.03V171.6h-1.03v2.061h-1.04v3.091h-1.03v2.061h-1.03v2.061c-0.69.343-1.38,0.687-2.06,1.03v2.061c-1.04.687-2.07,1.374-3.1,2.061l-5.16,6.183h-2.07c-0.34.687-.68,1.374-1.03,2.061-2.06.687-4.13,1.374-6.19,2.061v1.03h-3.1c-7.87,2.969-26.853,5.172-37.154,2.061h-5.161v-1.03h-3.1v-1.031l-6.193-1.03c-5.583-2.478-9.4-7.24-13.417-11.335l-3.1-2.061v-2.061H956.63v-2.061H955.6v-2.061h-1.032v-2.061h-1.032V172.63H952.5v-4.122h-1.032v-4.122c-2.1-6.714-2.4-13.707,0-19.578,1.5-.644,2.236-0.355,4.129-1.031v-1.03l18.578-1.031v1.031c2.5,1.26,1.493-.374,3.1,2.061,3.01,3.244.609,5.681,2.064,10.3,1.69,5.371,4.7,12.976,10.321,14.427,2.022,2.377,14.782,5.021,20.642,3.091,2.29-.754,4.36-2.425,7.23-3.091l3.09-4.122h1.03c1.87-2.813,5.1-15.543,3.1-21.64h-1.03q-0.525-2.575-1.03-5.152h-1.04c-1.46-1.864-2.33-2.451-3.09-5.152a7.974,7.974,0,0,1-4.13-2.061v-1.031h-2.06c-0.35-.687-0.69-1.374-1.04-2.061-2.06-.687-4.13-1.374-6.19-2.061v-1.03l-29.932-8.244v-1.03l-4.128-1.031-1.032-2.061h-2.065l-2.064-3.091h-2.064l-3.1-4.122h-1.033v-2.061l-2.064-1.03V100.5L955.6,99.467V97.406h-1.032V95.346h-1.032V92.254H952.5V88.132c-6.688-20.763,1.24-49.124,13.418-57.706h2.064l1.033-2.061h2.064l1.032-2.061h2.064v-1.03c8.274-3.769,30.824-6.569,42.314-3.091h5.16v1.03h3.1v1.031h3.1v1.031h3.09V26.3h2.07v1.031h2.06c0.35,0.687.69,1.374,1.03,2.061h2.07v1.031C1039.99,31.91,1040.65,32.76,1043.33,33.518Zm-574.9-11.335h22.707v1.03H496.3v1.031h3.1v1.031h3.1V26.3h2.064v1.031h2.064l1.032,2.061h2.065l1.032,2.061h2.064l2.064,3.091L521.07,39.7v2.061l2.064,1.031q0.516,1.546,1.033,3.091H525.2l3.1,9.274h1.032v2.061h1.032l1.032,6.183h1.033v4.122h1.032v4.122h1.032V76.8h1.032V84.01h1.032v10.3h1.032c1.464,5.262.072,28.035-1.032,31.944v9.275a68.91,68.91,0,0,1-2.064,9.274v5.152c-8.782,27.468-15,42.131-43.35,50.493h-8.257c-12.174.021-21.121-.872-28.9-5.153v-1.03h-2.064l-2.064-3.092h-2.064L442.628,185l-2.064-1.031V181.9l-3.1-2.061q-0.516-2.059-1.032-4.122H435.4v-2.06h-1.032l-2.064-6.183h-1.032v-3.092h-1.033v-3.091H429.21V158.2h-1.032v-4.122h-1.032V149.96h-1.032v-5.152h-1.032q-0.516-9.789-1.032-19.579h-1.032c-1.415-5.085-.02-26.157,1.032-29.883V84.01h1.032V76.8h1.032V71.645h1.032V67.523h1.032V63.4h1.032V60.31h1.032V57.219h1.033V54.127h1.032l2.064-6.183H435.4l1.032-4.122,2.065-1.03V40.731l8.257-7.213,2.064-3.091h2.064l1.032-2.061,4.129-1.03V26.3l4.128-1.03v-1.03C463.383,22.97,466.059,24.334,468.431,22.183ZM85.51,172.63H98.928c1.635,2.814,2.83,2.52,3.1,7.213,2.7,2.911.28,12.772,0,16.488a20.268,20.268,0,0,0-3.1,3.091H42.161l-1.032-2.061c-4.2-4.012-1.869-19.276,0-23.7,3.932-1.466,10.993-1.08,16.514-1.031V65.462c-7.56.151-14.7-.033-19.61-2.061A10.9,10.9,0,0,1,37,59.279c2.019-1.849.868-2,2.064-4.122H40.1V53.1l2.064-1.031,2.064-6.183,2.064-1.031V42.792h1.032V40.731h1.032V38.67h1.032V36.609l2.064-1.03V33.518h1.032V31.457h1.032c1.959-3.425,1.87-6.064,6.193-7.213,2.343-2.108,18.8-1.121,23.739-1.03C87.818,31.745,85.51,55,85.51,67.523V172.63ZM559.259,23.213H584.03l1.032,3.091c2.067,2.411,1.032,10.214,1.032,14.426V80.919c0,23.116-3.021,61.15,4.129,77.285h1.032q0.516,2.059,1.032,4.122l5.161,4.121,1.032,2.061h2.064v1.031c2.1,1.192,2.319,0,4.129,2.061,7.059,0.072,13.322,1.7,19.61-1.031v-1.03h2.065v-1.031h2.064l3.1-4.122,3.1-2.06c6.136-9.095,6.193-22.808,6.192-38.128V35.579c0.014-6.166-.518-8.595,3.1-11.335v-1.03h24.771L669.7,26.3c2.415,2.724,1.032,12.813,1.032,17.518V90.193c0,35.716,2.451,70.782-12.385,91.711l-3.1,2.061-6.192,7.213H646.99l-1.032,2.061-6.193,2.061v1.031H637.7v1.03l-7.225,1.031v1.03c-3.32,1.043-25.476,2.332-29.932,1.031v-1.031h-5.16v-1.03l-6.193-1.031v-1.03L583,194.27v-1.031h-2.064l-1.032-2.061h-2.065L572.677,185l-3.1-2.061v-2.061l-2.064-1.031v-2.061l-2.064-1.03c-12.066-19.189-9.289-63.257-9.289-94.8V27.335H557.2V25.274C557.456,24.839,558.648,24.345,559.259,23.213Zm137.274,0c8.295-.079,18.055-0.212,24.771,1.031l2.064,3.091H724.4l1.032,4.122h1.032v2.061H727.5l2.064,6.183h1.032v3.091h1.032v2.061h1.032v2.061h1.032v2.061h1.033v2.061h1.032V53.1h1.032v2.061h1.032l2.064,6.183h1.032v3.091h1.032q0.516,2.061,1.033,4.122h1.032l1.032,4.122h1.032v2.061h1.032l2.064,6.183H750.2V84.01h1.032l1.032,4.122H753.3v2.061h1.032v2.061h1.032v2.061H756.4l2.065,6.183h1.032v3.091h1.032l2.064,6.183h1.032v2.061h1.032v2.061h1.032v2.061h1.033v2.061h1.032v2.061h1.032v2.061h1.032v3.091h1.032v2.061h1.032v2.061h1.032v2.061c1.789,3.344,4.137,5.874,5.161,10.3H779.1V27.335h1.032V25.274h1.032l1.033-2.061h22.707A19.633,19.633,0,0,0,808,26.3V196.331c-3.032,1.76-2.955,2.979-8.257,3.091-3.741,3.464-20.123-.285-23.739-1.03l-2.064-3.092H772.91q-3.612-8.243-7.225-16.487h-1.032v-2.061h-1.032v-2.061h-1.032V172.63h-1.032v-2.061h-1.032l-2.064-6.183h-1.033l-2.064-6.182h-1.032l-1.032-4.122h-1.032l-1.032-4.122H750.2V147.9h-1.033v-2.061h-1.032v-2.061h-1.032v-2.061h-1.032v-2.061h-1.032l-1.032-4.121h-1.032v-3.092h-1.033v-2.061h-1.032V128.32h-1.032L738.85,124.2h-1.032l-1.032-4.121h-1.032v-2.061h-1.032v-2.061h-1.033v-2.061h-1.032v-2.061h-1.032l-2.064-6.183h-1.032v-2.061c-1.8-3.354-4.119-5.867-5.161-10.3h-1.032V194.27H721.3v3.091h-1.032c-4.621,5.293-17.183,2.381-24.772,2.061a13.707,13.707,0,0,0-3.1-4.122V84.01c0-18.917-2.035-41.642,1.032-58.736A7.723,7.723,0,0,0,696.533,23.213ZM166.017,24.244h27.867v1.031l12.386,2.061c11.644,5.1,22.853,15.981,22.707,32.975l-3.1,1.03c-2.961,2.778-14.192,4.161-20.642,4.122-0.637-1.269-1.73-1.519-2.065-2.061l-1.032-5.152-5.16-6.183-4.129-1.03v-1.03h-3.1v-1.03H178.4c-14.142.009-19.209,2.659-24.771,11.335H152.6c-0.94,1.384-.782,1.812-1.032,4.122-3.032,3.288-2.159,17.057-2.065,23.7h1.033c2.391-2.8,5.412-2.589,9.289-4.122V82.98h3.1V81.95h4.129v-1.03h25.8v1.03h5.161V82.98h3.1v1.03h3.1v1.03l5.161,1.031V87.1h2.064l1.033,2.061h2.064l2.064,3.091h2.064l10.322,14.427v3.091h1.032v2.061h1.032v4.122h1.032v4.122h1.032v6.182h1.032c1.326,4.7-.059,23.466-1.032,26.792l-1.032,11.335c-6.157,18.1-16.564,28.191-35.092,34.006l-20.643,1.03c-31.4,0-45.35-11.922-52.639-36.066v-7.213c-3.1-11-1.032-31.143-1.032-44.31,0-18.14-1.567-39.91,3.1-53.584V54.127H126.8V52.066h1.032V48.975l2.064-1.031,1.032-4.122,2.064-1.03V40.731l2.065-1.03,4.128-5.152h2.064q0.516-1.03,1.033-2.061l4.128-1.03,1.032-2.061h3.1v-1.03H152.6v-1.03h3.1V26.3C158.96,25.148,163.709,26.243,166.017,24.244Zm668.821,0c37.965-.361,68.7-2.924,84.635,19.579l3.1,2.061c9.2,13.94,8.257,36.591,8.257,59.767,0,27.962,2.057,56.5-9.29,73.163l-12.385,11.335-6.193,2.061v1.03H900.9v1.031h-3.1v1.03h-3.1v1.031h-4.128v1.03h-6.193v1.031H868.9c-10.352,2.854-26.868.69-36.125-1.031-0.975-1.856-1.429-1.622-2.064-4.122-1.753-2-1.031-7.686-1.032-11.335V71.645c0-14.369-1.27-31.674,1.032-44.31A13.73,13.73,0,0,0,834.838,24.244ZM473.592,51.036v1.03h-3.1l-8.257,7.213V61.34h-1.033l-2.064,6.183H458.11v3.091h-1.032v3.091h-1.032v4.122h-1.032V82.98h-1.033v9.274c-1.735,6.289-1.033,16.752-1.032,24.731,0,21.035,4.069,46.573,17.547,53.584h3.1c6.378,2.39,12.159.068,17.546-1.03l5.161-6.183,2.064-1.03v-2.061l2.064-1.031v-3.091h1.033v-2.061h1.032l1.032-6.183h1.032v-4.122h1.032v-5.152h1.032v-7.213h1.032V116.985h1.033q-0.516-5.151-1.033-10.3c-0.687-15.444-.69-24.913-5.16-36.067V67.523H501.46V65.462h-1.033V63.4l-6.192-8.244c-2.446-1.745-5.3-1.93-7.225-4.122H473.592Zm383.953,0V172.63c14.883,0.2,35.577-.856,41.286-9.274,4.7-6.927,4.128-20.311,4.128-31.944V72.675h-1.032V65.462H900.9l-2.064-6.183L890.574,53.1C883.034,49.71,868.183,51.043,857.545,51.036ZM169.113,106.681v1.03l-5.161,1.031v1.03h-2.064l-1.032,2.061h-2.064l-5.161,7.213v3.092H152.6v3.091h-1.032v7.213h-1.032V148.93h1.032v7.213H152.6v3.091h1.032v3.092l6.193,8.243,9.289,3.092v1.03h18.578v-1.03h3.1V172.63l4.128-1.03,1.032-2.061,5.161-4.122c5-7.462,7.849-33.584,3.1-44.31h-1.032l-1.032-4.122-2.064-1.03v-2.061h-1.032l-2.064-3.092h-2.065l-1.032-2.06C188.607,105.522,177.372,106.52,169.113,106.681Z" transform="translate(-37 -16)"/>
</svg>
